<svg xmlns="http://www.w3.org/2000/svg" viewBox="0 0 512 512">
  <defs>
    <linearGradient id="fire-gradient" x1="0%" y1="100%" x2="0%" y2="0%">
      <stop offset="0%" stop-color="#e65100" />
      <stop offset="50%" stop-color="#ff9800" />
      <stop offset="100%" stop-color="#ffeb3b" />
    </linearGradient>
  </defs>
  
  <!-- Wood Logs -->
  <path fill="#795548" d="M380.4 384l-32-32-208 208 32 32z"/>
  <path fill="#5d4037" d="M139.6 384l32-32 208 208-32 32z"/>
  
  <!-- Fire Flame -->
  <path fill="url(#fire-gradient)" d="M256 32c-88.4 0-160 71.6-160 160 0 88.4 71.6 160 160 160s160-71.6 160-160c0-88.4-71.6-160-160-160z" transform="translate(0, 40) scale(0.8, 1)"/>
  <path fill="#fff" opacity="0.3" d="M256 96c-53 0-96 43-96 96 0 53 43 96 96 96s96-43 96-96c0-53-43-96-96-96z" transform="translate(0, 40) scale(0.8, 1)"/>

  <!-- Simplified Fire Shape similar to typical icons -->
  <path fill="url(#fire-gradient)" d="M256 0c-60 120-130 140-130 240 0 80 60 140 130 140s130-60 130-140c0-100-70-120-130-240z"/>
  <path fill="#fff" opacity="0.4" d="M256 60c-30 80-80 100-80 180 0 50 30 90 80 90s80-40 80-90c0-80-50-100-80-180z"/>
  
  <!-- Logs (Bottom) -->
  <g transform="translate(0, 360)">
    <rect x="100" y="50" width="312" height="40" rx="20" fill="#5D4037" transform="rotate(10, 256, 70)" />
    <rect x="100" y="50" width="312" height="40" rx="20" fill="#795548" transform="rotate(-10, 256, 70)" />
  </g>
</svg>
